<?xml version="1.0" standalone="no"?>
<!DOCTYPE svg PUBLIC "-//W3C//DTD SVG 20010904//EN"
 "http://www.w3.org/TR/2001/REC-SVG-20010904/DTD/svg10.dtd">
<svg version="1.0" xmlns="http://www.w3.org/2000/svg"
 width="1024.000000pt" height="1024.000000pt" viewBox="0 0 1024.000000 1024.000000"
 preserveAspectRatio="xMidYMid meet">

<g transform="translate(0.000000,1024.000000) scale(0.100000,-0.100000)"
fill="#000000" stroke="none">
<path d="M4965 9708 c-1229 -1134 -2236 -2213 -2939 -3148 -623 -829 -987
-1506 -1105 -2055 -60 -275 -52 -581 24 -960 209 -1041 985 -1966 2100 -2501
930 -446 2006 -586 3090 -404 299 51 718 172 1020 296 169 70 459 215 611 307
167 101 309 202 306 218 -2 8 -434 1221 -960 2696 -849 2381 -957 2677 -960
2635 -4 -59 37 -5052 42 -5108 l3 -42 -170 -46 c-93 -26 -171 -45 -173 -43 -4
4 -349 1269 -1125 4127 -198 729 -362 1332 -366 1340 -3 8 -35 -196 -70 -455
-75 -548 -528 -3861 -609 -4455 -31 -223 -58 -407 -60 -409 -4 -4 -346 38
-351 43 -2 1 38 299 87 662 161 1187 590 4329 650 4764 33 234 74 530 91 658
27 193 35 232 48 232 9 0 89 -9 178 -21 l162 -22 -2 -36 c-2 -33 1322 -4926
1330 -4917 2 2 -6 1089 -18 2417 l-21 2413 -22 63 -23 62 26 10 c14 5 90 32
169 60 l142 50 15 -35 c8 -20 20 -53 26 -75 7 -21 15 -39 19 -39 4 0 10 -13
12 -28 5 -38 2231 -6272 2239 -6272 15 0 313 306 404 415 367 439 607 925 710
1440 76 379 84 685 24 960 -167 775 -850 1848 -2003 3145 -552 621 -1481 1555
-2137 2148 -86 78 -158 142 -160 142 -2 -1 -116 -105 -254 -232z m-1443 -3057
c-6 -4 -13 -19 -14 -34 -1 -15 -5 -27 -9 -27 -3 0 -12 -25 -19 -55 -7 -30 -16
-55 -19 -55 -4 0 -8 -12 -9 -27 -1 -15 -5 -29 -10 -32 -7 -6 -10 -15 -17 -53
-2 -9 -8 -25 -13 -35 -5 -10 -8 -26 -7 -35 2 -10 -1 -18 -6 -18 -5 0 -9 -8 -9
-18 0 -10 -4 -22 -8 -28 -10 -11 -35 -89 -35 -109 0 -8 -4 -15 -9 -15 -5 0 -6
-4 -3 -10 3 -5 2 -10 -4 -10 -5 0 -8 -8 -6 -17 1 -10 -4 -31 -12 -46 -8 -16
-16 -36 -18 -45 -2 -10 -13 -42 -23 -72 -11 -30 -22 -66 -24 -80 -1 -14 -8
-31 -15 -37 -6 -7 -14 -31 -18 -53 -4 -22 -12 -40 -18 -40 -5 0 -8 -3 -4 -6 3
-4 0 -21 -8 -39 -7 -19 -11 -36 -7 -39 3 -3 -1 -6 -8 -6 -7 0 -11 -3 -7 -6 3
-3 -1 -23 -8 -44 -7 -21 -11 -41 -8 -44 4 -3 1 -6 -6 -6 -7 0 -9 -4 -6 -10 3
-5 2 -10 -2 -10 -5 0 -10 -11 -11 -25 -3 -38 -6 -49 -19 -63 -7 -7 -13 -24
-13 -37 0 -13 -6 -30 -13 -37 -7 -7 -12 -20 -12 -28 1 -8 -3 -23 -8 -33 -4
-10 -10 -26 -12 -35 -7 -38 -10 -47 -17 -52 -4 -3 -9 -17 -11 -30 -2 -14 -9
-38 -15 -53 -7 -16 -12 -30 -12 -32 0 -2 -5 -16 -12 -32 -6 -15 -13 -39 -15
-52 -2 -13 -11 -37 -19 -53 -8 -15 -12 -28 -10 -28 3 0 -1 -12 -9 -26 -7 -15
-12 -35 -10 -45 2 -11 0 -19 -5 -19 -9 0 -50 -120 -53 -152 -1 -10 -5 -18 -10
-18 -4 0 -5 -4 -2 -10 3 -5 1 -10 -6 -10 -7 0 -10 -3 -6 -6 3 -3 -1 -25 -10
-47 -8 -23 -16 -46 -17 -52 -4 -13 -15 -43 -28 -75 -10 -25 -18 -61 -21 -92
-1 -10 -7 -18 -14 -18 -7 0 -12 -3 -11 -7 5 -19 -15 -93 -25 -93 -5 0 -8 -3
-4 -6 3 -4 0 -22 -8 -40 -8 -19 -12 -34 -9 -34 2 0 -5 -16 -15 -36 -11 -20
-18 -44 -16 -55 2 -10 -1 -19 -6 -19 -6 0 -7 -4 -4 -10 3 -6 1 -10 -4 -10 -6
0 -10 -3 -9 -7 1 -5 -2 -28 -6 -52 l-8 -45 -15 27 c-34 66 -88 285 -113 462
-18 125 -23 386 -11 526 41 462 172 850 404 1194 102 151 287 340 414 421 65
43 227 124 233 118 2 -3 -1 -8 -8 -13z"/>
</g>
</svg>
